<?xml version="1.0" encoding="UTF-8"?>
<svg version="1.1" xmlns="http://www.w3.org/2000/svg" width="256" height="185">
<path d="M0 0 C84.48 0 168.96 0 256 0 C256 61.05 256 122.1 256 185 C171.52 185 87.04 185 0 185 C0 123.95 0 62.9 0 0 Z " fill="#FBFBFB" transform="translate(0,0)"/>
<path d="M0 0 C2.13427734 0.4050293 2.13427734 0.4050293 4 1 C1.39466645 27.7516723 -9.09573361 52.30205505 -26.3359375 72.9765625 C-32.9672583 81.03999953 -31.46683946 93.03352045 -31 103 C-30.52764731 106.11342034 -29.8526249 108.96252378 -29 112 C-26.36 112.66 -23.72 113.32 -21 114 C-20.71640625 113.27039063 -20.4328125 112.54078125 -20.140625 111.7890625 C-19.10428277 109.2549928 -17.95127804 106.83361572 -16.75 104.375 C-11.21615869 92.19728431 -7.77027944 79.2539094 -5.29272461 66.14257812 C-4.59317407 62.48836257 -3.94917251 59.20587585 -2 56 C-0.68 56.33 0.64 56.66 2 57 C1.54990807 61.95101124 0.85908314 66.7279749 -0.14428711 71.59960938 C-3.83545282 89.59219337 -3.83545282 89.59219337 -1 107 C1.02463255 107.65213292 1.02463255 107.65213292 3 108 C7.41931206 99.58905124 10.06055501 90.77492464 11.5 81.4375 C12.84240587 72.75313637 15.06348247 64.40477629 20 57 C20.66 57 21.32 57 22 57 C22.44114245 64.76900874 20.81702641 71.14204048 18.625 78.5625 C13.89279614 95.4073121 12.62512346 111.57785997 12 129 C12.14248169 128.04468384 12.14248169 128.04468384 12.2878418 127.07006836 C14.5028407 112.36957413 17.1132073 97.84152907 20.46679688 83.35693359 C20.91241276 81.38716447 21.31330858 79.40734808 21.703125 77.42578125 C23.71722192 67.75553387 28.32406953 56.92537464 35.625 50.0625 C39.20351725 47.87562835 40.89712937 47.23667523 45 48 C47.49394444 50.49394444 47.2576853 52.00269227 47.27734375 55.41015625 C47.26832031 56.12042969 47.25929688 56.83070312 47.25 57.5625 C47.24613281 58.28179687 47.24226563 59.00109375 47.23828125 59.7421875 C47.15196158 65.06523364 46.46724809 69.86463169 45 75 C45.66 75 46.32 75 47 75 C47.22816406 74.36320312 47.45632812 73.72640625 47.69140625 73.0703125 C49.49279321 68.84377473 51.70591311 64.88734814 53.9375 60.875 C54.38029297 60.06417969 54.82308594 59.25335938 55.27929688 58.41796875 C55.92801758 57.24814453 55.92801758 57.24814453 56.58984375 56.0546875 C57.17560181 54.99483643 57.17560181 54.99483643 57.77319336 53.91357422 C59.01940537 51.96973149 60.23749673 50.49020396 62 49 C62.66 49 63.32 49 64 49 C63.5140615 51.7536515 62.93759836 54.15253734 61.875 56.75 C60.30869238 62.56771403 61.4508922 67.76198807 63.5625 73.3125 C66.97673748 83.03124531 65.04696295 91.82206616 61 101 C62.98 101.99 62.98 101.99 65 103 C65 104.98 65 106.96 65 109 C61.54173658 109.05789006 58.08359707 109.09355821 54.625 109.125 C53.64015625 109.14175781 52.6553125 109.15851563 51.640625 109.17578125 C50.69960937 109.18222656 49.75859375 109.18867187 48.7890625 109.1953125 C47.48509521 109.21102295 47.48509521 109.21102295 46.15478516 109.22705078 C44 109 44 109 42 107 C41.8125 104.4375 41.8125 104.4375 42 102 C43.51072804 100.48927196 45.16679526 100.55654455 47.25 100.1875 C52.47039294 99.06055803 55.46178323 97.14304957 58.609375 92.7578125 C61.38999079 87.24344523 60.78206905 80.32379344 59.390625 74.41015625 C58.10449281 70.47091104 58.10449281 70.47091104 55 68 C54.75636719 68.69867188 54.51273437 69.39734375 54.26171875 70.1171875 C52.79909144 73.45904186 50.93162846 76.15603173 48.8125 79.125 C45.83601411 83.3373262 42.9441551 87.57577948 40.1875 91.9375 C39.62675781 92.824375 39.06601563 93.71125 38.48828125 94.625 C37.60338258 96.03712176 36.723732 97.45258921 35.85546875 98.875 C33.69011308 102.32576601 31.42597161 104.77311845 28 107 C26.68 107 25.36 107 24 107 C24.12655957 100.92514079 26.02857196 98.50536752 30.09765625 94.13671875 C39.23030305 83.87889986 43.80916857 69.67127896 43.17578125 56.0625 C43.11777344 55.381875 43.05976563 54.70125 43 54 C41.02 53.505 41.02 53.505 39 53 C13.72680922 80.43946428 15.56246399 133.16855421 14 168 C12.68 168 11.36 168 10 168 C6.04152674 158.49966417 6.83287234 147.24015212 6.875 137.125 C6.87693359 135.99400879 6.87886719 134.86301758 6.88085938 133.69775391 C6.92188749 125.75995357 7.19548045 117.90153128 8 110 C7.34 110 6.68 110 6 110 C5.505 111.485 5.505 111.485 5 113 C-0.23170732 114.42682927 -0.23170732 114.42682927 -3.25 112.75 C-5.94608603 108.51329337 -6.35516397 103.92111708 -7 99 C-10.20602083 102.88608586 -12.16089545 107.3132316 -14.21875 111.8671875 C-16.18282954 115.98998509 -18.18219397 118.48957771 -22 121 C-24.5 121.5625 -24.5 121.5625 -27 121 C-32.52573635 117.09155234 -34.7504706 111.52759621 -36 105 C-36.46144337 97.67610006 -36.2521585 90.32908371 -36 83 C-37.05960938 83.16757813 -38.11921875 83.33515625 -39.2109375 83.5078125 C-40.59887145 83.71412701 -41.98689726 83.91982423 -43.375 84.125 C-44.42300781 84.29322266 -44.42300781 84.29322266 -45.4921875 84.46484375 C-47.31787914 84.72816466 -49.1598762 84.8718116 -51 85 C-51.66 84.34 -52.32 83.68 -53 83 C-53 82.01 -53 81.02 -53 80 C-52.21496094 79.75765625 -51.42992187 79.5153125 -50.62109375 79.265625 C-49.04521484 78.76289063 -49.04521484 78.76289063 -47.4375 78.25 C-46.40496094 77.92515625 -45.37242188 77.6003125 -44.30859375 77.265625 C-43.21675781 76.84796875 -42.12492187 76.4303125 -41 76 C-39.18435547 75.31550781 -39.18435547 75.31550781 -37.33203125 74.6171875 C-32.98845608 72.01548257 -32.32778883 68.04311649 -31.09912109 63.36694336 C-30.81891113 62.21460205 -30.53870117 61.06226074 -30.25 59.875 C-27.57249419 49.9202571 -24.42704359 40.42027367 -20.375 30.9375 C-19.93188477 29.88739746 -19.48876953 28.83729492 -19.03222656 27.75537109 C-15.26725333 19.09148036 -11.12962708 10.55519311 -4.375 3.8125 C-3.27285156 2.67748047 -3.27285156 2.67748047 -2.1484375 1.51953125 C-1.43945312 1.01808594 -0.73046875 0.51664063 0 0 Z " fill="#0F0F0F" transform="translate(114,12)"/>
<path d="M0 0 C0.66 0.33 1.32 0.66 2 1 C3.97290112 27.08613699 -8.31859026 55.18200789 -17.76953125 79.09765625 C-19.57979436 83.73369593 -20.86566025 88.03263473 -21.6875 92.9375 C-21.8014209 93.60370361 -21.9153418 94.26990723 -22.03271484 94.95629883 C-22.371015 96.96868373 -22.68809393 98.98337457 -23 101 C-23.19464844 102.21171875 -23.38929688 103.4234375 -23.58984375 104.671875 C-24.77038597 112.42726188 -25.50589377 120.1723171 -26 128 C-23.39120905 125.39120905 -23.058063 123.21362567 -22.08203125 119.65625 C-21.71489822 118.34212031 -21.34745433 117.02807745 -20.97973633 115.71411133 C-20.78940826 115.02556061 -20.5990802 114.33700989 -20.40298462 113.62759399 C-15.70729738 96.70841331 -10.30911791 80.52252796 -2 65 C-1.01 65 -0.02 65 1 65 C0.51991217 69.11570441 -0.00876494 73.19316995 -0.75390625 77.26953125 C-2.26359039 85.63657704 -3.29164222 93.79835425 -3.3125 102.3125 C-3.31773682 103.09407471 -3.32297363 103.87564941 -3.32836914 104.6809082 C-3.27363518 109.13470269 -2.79279485 112.8469069 -1 117 C2.42357596 118.90198664 6.2953927 117.64118203 10 117 C8.56036361 120.35915158 6.87583411 122.71624938 4 125 C0.93206783 125.09896555 -0.19899833 123.83497699 -2.5625 121.875 C-8.89046893 114.41124177 -8.48847648 107.48088434 -8 98 C-7.77308038 95.61734398 -7.44805839 93.35230654 -7 91 C-10.31582225 92.65791113 -10.74103751 96.34645053 -11.875 99.6875 C-12.14038574 100.45263916 -12.40577148 101.21777832 -12.67919922 102.00610352 C-14.31289753 106.78088158 -15.77556408 111.57524677 -17.125 116.4375 C-21.49834198 132.10563015 -21.49834198 132.10563015 -25.125 134.265625 C-25.74375 134.50796875 -26.3625 134.7503125 -27 135 C-30.88065651 130.93455032 -30.40239546 127.01919127 -30.35742188 121.65234375 C-30.1698148 113.93960857 -28.67727052 106.50778232 -27 99 C-29.78723081 101.6430637 -31.95441846 104.25375103 -34 107.5 C-38.82926829 114.91463415 -38.82926829 114.91463415 -43 117 C-45.94827837 117.40203796 -48.08145963 117.54942715 -50.69140625 115.98828125 C-53.40626033 113.80985617 -54.8883354 112.33499379 -56 109 C-56.92893649 89.09120195 -45.79845589 69.16564833 -34.48999023 53.46533203 C-32.72178908 51.72639326 -31.41871665 51.38338783 -29 51 C-28.42613124 65.2032519 -29.53466398 77.47750088 -37 90 C-38.485 90.495 -38.485 90.495 -40 91 C-39.32969264 84.90373091 -38.23964287 78.99077746 -36.9375 73 C-36.75123047 72.12988281 -36.56496094 71.25976562 -36.37304688 70.36328125 C-35.9183875 68.24153748 -35.45962195 66.12067429 -35 64 C-35.66 64 -36.32 64 -37 64 C-37.24878906 64.81984375 -37.49757812 65.6396875 -37.75390625 66.484375 C-39.20223436 70.57056716 -41.03647102 74.36018886 -42.9375 78.25 C-47.67121503 88.1869772 -51.06042936 96.76352732 -50 108 C-48.87280116 109.34294244 -48.87280116 109.34294244 -45.9375 109.25 C-41.98382381 108.58165963 -40.47417368 106.57757785 -38.125 103.4375 C-36.71025266 101.30712171 -35.34240121 99.17427766 -34 97 C-33.42233887 96.09459473 -33.42233887 96.09459473 -32.83300781 95.17089844 C-27.1939312 86.25574314 -23.53272436 77.73020333 -21.46679688 67.33154297 C-20.7415681 63.70919213 -19.9414551 60.10348001 -19.15332031 56.49438477 C-18.71802706 54.49929069 -18.28508101 52.50368305 -17.85449219 50.50756836 C-8.86531676 8.86531676 -8.86531676 8.86531676 0 0 Z " fill="#090909" transform="translate(236,5)"/>
<path d="M0 0 C0.47935319 3.00394663 0.61869642 5.13427826 -1.19970703 7.67871094 C-2.92870772 9.48447487 -4.71871487 11.18660306 -6.5625 12.875 C-7.86487994 14.12072658 -9.16568112 15.36810597 -10.46484375 16.6171875 C-11.08601074 17.20725586 -11.70717773 17.79732422 -12.34716797 18.40527344 C-15.46213824 21.41073663 -18.22560766 24.68382718 -21 28 C-27.54745496 35.80309678 -34.17078164 43.2763544 -41.4609375 50.3984375 C-44.66743042 53.68385948 -47.46654893 57.20111672 -50.2734375 60.828125 C-52.34962247 63.43979659 -54.56889473 65.72083881 -57 68 C-55.44312605 71.92368231 -52.9666568 74.00873552 -49.8125 76.75 C-44.71736421 81.27473793 -40.00385971 86.06354266 -35.375 91.0625 C-27.91174676 99.11371565 -20.42841904 107.00851653 -12.0703125 114.1484375 C-8.68122578 117.17943204 -5.53796255 120.45385272 -2.34375 123.6875 C0.31849119 126.31424464 3.06680377 128.68431877 6 131 C5.34 132.32 4.68 133.64 4 135 C0.8294873 134.4165913 -0.85649897 133.53089908 -3.171875 131.3046875 C-4.038125 130.4839978 -4.038125 130.4839978 -4.921875 129.64672852 C-5.52515625 129.06205811 -6.1284375 128.4773877 -6.75 127.875 C-8.01476625 126.67227339 -9.28038362 125.47044114 -10.546875 124.26953125 C-11.14951172 123.69541504 -11.75214844 123.12129883 -12.37304688 122.52978516 C-14.19954931 120.81236855 -16.0816755 119.17639475 -18 117.5625 C-22.52884779 113.66808132 -26.65755334 109.36678617 -30.85620117 105.12451172 C-34.49436481 101.46232571 -38.2029086 97.97323089 -42.14453125 94.63671875 C-45.16412147 91.97312232 -47.9391715 89.06856407 -50.765625 86.203125 C-52.86553546 84.13258391 -55.01976712 82.17839685 -57.25 80.25 C-57.89324219 79.69054687 -58.53648438 79.13109375 -59.19921875 78.5546875 C-60.33902716 77.57064466 -61.48659938 76.59546369 -62.64453125 75.6328125 C-64.0625 74.375 -64.0625 74.375 -66 72 C-65.82014326 67.3002653 -63.70884985 65.30480069 -60.375 62.1875 C-57.23419181 59.17607169 -54.19743655 56.1874429 -51.375 52.875 C-49.02217389 50.12451314 -46.5792506 47.53972186 -44 45 C-40.78985998 41.83299046 -37.79189823 38.55042984 -34.84765625 35.13671875 C-29.65227129 29.12852515 -24.34422297 23.27122576 -18.67578125 17.70703125 C-16.88946557 15.88740432 -15.22522165 13.99546083 -13.5625 12.0625 C-3.12879159 0 -3.12879159 0 0 0 Z " fill="#0B0B0B" transform="translate(85,18)"/>
<path d="M0 0 C2.86724686 0.57344937 3.8614515 0.8614515 6 3 C5.60820201 8.01924996 4.66138978 12.82436254 3.625 17.75 C1.1701041 30.02294232 0.22347296 42.55807988 -1 55 C2.22768206 51.81195614 5.34961213 48.56785215 8.375 45.1875 C9.15617187 44.31480469 9.93734375 43.44210938 10.7421875 42.54296875 C12.67127732 40.37023956 14.59016865 38.18964385 16.5 36 C17.66591094 34.66600579 18.83261327 33.33270293 20 32 C20.66386719 31.24203125 21.32773437 30.4840625 22.01171875 29.703125 C30.10529003 20.57787766 38.42737244 11.7782733 48 4.1875 C48.53979492 3.74857422 49.07958984 3.30964844 49.63574219 2.85742188 C53.43719335 -0.0564658 53.43719335 -0.0564658 56.375 0.23828125 C56.91125 0.48964844 57.4475 0.74101562 58 1 C57.68986025 4.27944065 57.24554288 5.73799351 54.9609375 8.17578125 C54.10757813 8.88089844 53.25421875 9.58601563 52.375 10.3125 C48.45143609 13.57811242 45.13479882 17.04079726 41.82080078 20.90112305 C38.89399737 24.27491347 35.81794499 27.50497304 32.75 30.75 C28.28266707 35.49437683 23.83239825 40.25090028 19.4375 45.0625 C17.62577225 47.04238212 15.81361005 49.02184387 14 51 C13.42830078 51.62358398 12.85660156 52.24716797 12.26757812 52.88964844 C10.41172222 54.90948738 8.55021448 56.92398619 6.6875 58.9375 C6.11249756 59.56470947 5.53749512 60.19191895 4.94506836 60.83813477 C1.50565837 64.54491586 -1.96984491 67.93522116 -6 71 C-6.66 71 -7.32 71 -8 71 C-7.50860915 47.18247554 -6.92827037 22.96528199 0 0 Z " fill="#090909" transform="translate(23,13)"/>
<path d="M0 0 C8.99348564 7.64263957 17.65450917 15.56758595 25.94140625 23.97265625 C27.79866481 25.80172113 29.70016414 27.50267615 31.6875 29.1875 C36.31709486 33.14117401 40.50100022 37.52118292 44.76489258 41.85913086 C48.76596277 45.88514335 52.87520697 49.48650965 57.5234375 52.765625 C58.01070312 53.17296875 58.49796875 53.5803125 59 54 C59 54.66 59 55.32 59 56 C59.5775 56.2475 60.155 56.495 60.75 56.75 C63.38288682 58.2127149 65.12450669 59.63826769 67 62 C66.75 64.25 66.75 64.25 66 66 C62.22196365 66.60024877 61.04373932 66.03128917 57.87109375 63.76171875 C56.71507795 62.74995274 55.57112563 61.72429117 54.4375 60.6875 C53.82616211 60.14496582 53.21482422 59.60243164 52.58496094 59.04345703 C50.71186972 57.37455313 48.85519012 55.6887562 47 54 C45.92365735 53.03462051 44.84686055 52.06974704 43.76953125 51.10546875 C28.30784674 37.17933714 28.30784674 37.17933714 22.96875 30.43359375 C21.11592242 28.14329299 19.24794064 26.3298094 17 24.4375 C14.78992093 22.55544751 12.71533031 20.70763653 10.6875 18.625 C8.99077259 16.75789029 8.99077259 16.75789029 6 16 C7.8543304 27.14685106 9.73075589 38.28002622 12.1875 49.3125 C12.35411133 50.0638623 12.52072266 50.81522461 12.69238281 51.58935547 C13.54402593 55.39700899 13.54402593 55.39700899 15 59 C15.25 62.5 15.25 62.5 15 66 C12 68 12 68 9 68 C3.38407736 52.04932103 0.12856791 35.91025182 0 19 C-0.00837891 18.1352002 -0.01675781 17.27040039 -0.02539062 16.37939453 C-0.06853457 10.91874342 -0.05448396 5.46050316 0 0 Z " fill="#0B0B0B" transform="translate(16,91)"/>
<path d="M0 0 C1.32 0 2.64 0 4 0 C3.63745306 5.42570249 2.90642718 10.58827426 1.625 15.875 C-7.16250276 56.30617035 -6.20829249 103.92674173 5.41625977 143.6809082 C6 146 6 146 6 149 C1.25 148.25 1.25 148.25 -1 146 C-2.1957106 143.01172293 -3.02921415 139.8988416 -3.9375 136.8125 C-4.18951172 135.99330078 -4.44152344 135.17410156 -4.70117188 134.33007812 C-5.5253802 131.56655611 -6.26970443 128.7897796 -7 126 C-7.2786792 125.01644531 -7.5573584 124.03289062 -7.84448242 123.01953125 C-10.87457449 110.65726109 -10.491258 98.05159916 -10.44604492 85.39941406 C-10.43247601 81.43260899 -10.46622444 77.46670369 -10.49804688 73.5 C-10.65440391 15.98160587 -10.65440391 15.98160587 0 0 Z " fill="#0A0A0A" transform="translate(16,12)"/>
<path d="M0 0 C2.14187602 3.21281403 2.23448772 3.47199484 1.71875 7.00390625 C1.60917969 7.80070801 1.49960937 8.59750977 1.38671875 9.41845703 C1.19529297 10.6963208 1.19529297 10.6963208 1 12 C0.75965 13.77984455 0.52008783 15.55979565 0.28125 17.33984375 C-0.10787635 20.14037433 -0.50040861 22.94040276 -0.89453125 25.74023438 C-2.46255904 37.04112156 -3.2332278 48.20386623 -3.60546875 59.60546875 C-3.64285156 60.63027344 -3.68023438 61.65507813 -3.71875 62.7109375 C-3.74904297 63.63181152 -3.77933594 64.55268555 -3.81054688 65.50146484 C-3.98390338 67.7877154 -4.36502756 69.80266115 -5 72 C4.93707058 64.95327928 12.80629746 55.92991221 21 47 C22.10203957 45.80913183 23.20484121 44.61896818 24.30859375 43.4296875 C28.22618969 39.20313683 32.13833817 34.97434386 35.97265625 30.671875 C36.46016357 30.12893799 36.9476709 29.58600098 37.44995117 29.02661133 C38.78152509 27.54173646 40.10588529 26.05040144 41.4296875 24.55859375 C44.14654203 21.8541261 46.75501948 20.01037423 50 18 C48.52745541 23.05542379 45.51626708 25.79475032 41.8125 29.3125 C40.62450594 30.46951279 39.43829281 31.62835713 38.25390625 32.7890625 C37.68687988 33.34368164 37.11985352 33.89830078 36.53564453 34.46972656 C34.11427083 36.88263123 31.88783539 39.43914858 29.671875 42.0390625 C24.57608852 48.01589618 19.28538679 53.77797596 13.6875 59.28515625 C11.22599138 61.78655043 8.92839086 64.41520797 6.6484375 67.08203125 C5.59417167 68.30867704 4.51767643 69.51677525 3.4140625 70.69921875 C1.8238795 72.38589056 1.8238795 72.38589056 0 75 C0.24585694 78.86233327 2.37147887 80.71379521 5.0625 83.3125 C5.87847656 84.10269531 6.69445313 84.89289063 7.53515625 85.70703125 C10.29049939 88.2702427 13.11189738 90.73876918 15.96875 93.1875 C18.23638572 95.2109288 20.3657695 97.33653347 22.5 99.5 C25.14730434 102.18326093 27.81096943 104.75256901 30.6875 107.1875 C35.32490479 111.15578025 39.55038097 115.52141258 43.83740234 119.85913086 C47.62957439 123.6796027 51.49358765 127.33158211 55.64453125 130.765625 C57 132 57 132 58 134 C57.01 134.33 56.02 134.66 55 135 C53.93458984 133.91912109 53.93458984 133.91912109 52.84765625 132.81640625 C50.12694314 130.09569314 47.29475977 127.51486493 44.4375 124.9375 C39.54854896 120.50049447 34.86060262 115.90038014 30.22265625 111.203125 C26.95830926 107.91300684 23.58682801 104.83994315 20.05859375 101.83984375 C17.43501564 99.49505193 14.97006955 97.00372173 12.5 94.5 C8.64887038 90.60602053 4.73029042 86.88708686 0.55859375 83.33984375 C-0.67503179 82.27935864 -1.84968251 81.15031749 -3 80 C-3.06384119 86.0010717 -3.06040611 91.99888496 -3 98 C-2.99419922 98.74733398 -2.98839844 99.49466797 -2.98242188 100.26464844 C-2.81576546 112.58055724 -0.50010799 124.01405759 2.55688477 135.92553711 C3 138 3 138 3 141 C2.34 141 1.68 141 1 141 C0.505 141.99 0.505 141.99 0 143 C-2.37745081 132.71694818 -4.71629977 122.4873724 -6 112 C-6.09023437 111.31244629 -6.18046875 110.62489258 -6.2734375 109.91650391 C-10.93936786 73.24323705 -8.39712079 35.90080605 0 0 Z " fill="#EFEEEF" transform="translate(20,12)"/>
<path d="M0 0 C-0.4859385 2.7536515 -1.06240164 5.15253734 -2.125 7.75 C-3.69130762 13.56771403 -2.5491078 18.76198807 -0.4375 24.3125 C2.97673748 34.03124531 1.04696295 42.82206616 -3 52 C-1.68 52.66 -0.36 53.32 1 54 C1 55.98 1 57.96 1 60 C-2.45826342 60.05789006 -5.91640293 60.09355821 -9.375 60.125 C-10.35984375 60.14175781 -11.3446875 60.15851563 -12.359375 60.17578125 C-13.30039063 60.18222656 -14.24140625 60.18867187 -15.2109375 60.1953125 C-16.51490479 60.21102295 -16.51490479 60.21102295 -17.84521484 60.22705078 C-20 60 -20 60 -22 58 C-22.1875 55.4375 -22.1875 55.4375 -22 53 C-20.48927196 51.48927196 -18.83320474 51.55654455 -16.75 51.1875 C-11.52960706 50.06055803 -8.53821677 48.14304957 -5.390625 43.7578125 C-2.61000921 38.24344523 -3.21793095 31.32379344 -4.609375 25.41015625 C-5.89550719 21.47091104 -5.89550719 21.47091104 -9 19 C-9.36544922 20.04800781 -9.36544922 20.04800781 -9.73828125 21.1171875 C-11.20090856 24.45904186 -13.06837154 27.15603173 -15.1875 30.125 C-18.16398589 34.3373262 -21.0558449 38.57577948 -23.8125 42.9375 C-24.37324219 43.824375 -24.93398437 44.71125 -25.51171875 45.625 C-26.39661742 47.03712176 -27.276268 48.45258921 -28.14453125 49.875 C-30.30988692 53.32576601 -32.57402839 55.77311845 -36 58 C-37.32 58 -38.64 58 -40 58 C-39.87344043 51.92514079 -37.97142804 49.50536752 -33.90234375 45.13671875 C-27.91489872 38.41160082 -25.0399606 30.9183718 -22.73583984 22.35742188 C-21.30173863 17.20115908 -21.30173863 17.20115908 -18 15 C-18.33 18.63 -18.66 22.26 -19 26 C-18.34 26 -17.68 26 -17 26 C-16.77183594 25.36320312 -16.54367188 24.72640625 -16.30859375 24.0703125 C-14.50720679 19.84377473 -12.29408689 15.88734814 -10.0625 11.875 C-9.61970703 11.06417969 -9.17691406 10.25335938 -8.72070312 9.41796875 C-8.07198242 8.24814453 -8.07198242 8.24814453 -7.41015625 7.0546875 C-7.01965088 6.34812012 -6.62914551 5.64155273 -6.22680664 4.91357422 C-3.07667772 0 -3.07667772 0 0 0 Z " fill="#0B0B0B" transform="translate(178,61)"/>
<path d="M0 0 C2.12939453 0.40551758 2.12939453 0.40551758 4 1 C1.83467384 23.23365828 -5.64599773 43.36855755 -18 62 C-18.99 61.67 -19.98 61.34 -21 61 C-22.485 61.495 -22.485 61.495 -24 62 C-24.33 62.99 -24.66 63.98 -25 65 C-25.33 65 -25.66 65 -26 65 C-25.6919161 57.16118445 -24.20285793 50.85162806 -21.0625 43.6875 C-20.67006104 42.76050293 -20.27762207 41.83350586 -19.87329102 40.87841797 C-15.44304865 30.50078666 -10.74941941 20.23481184 -6 10 C-7.98 10.99 -7.98 10.99 -10 12 C-8.53374144 8.65179102 -6.66341553 6.30733641 -4.125 3.6875 C-3.10792969 2.61048828 -3.10792969 2.61048828 -2.0703125 1.51171875 C-1.38710937 1.01285156 -0.70390625 0.51398437 0 0 Z " fill="#0F0F0F" transform="translate(114,12)"/>
<path d="M0 0 C0.99 0 1.98 0 3 0 C2.51991217 4.11570441 1.99123506 8.19316995 1.24609375 12.26953125 C-0.26359039 20.63657704 -1.29164222 28.79835425 -1.3125 37.3125 C-1.31773682 38.09407471 -1.32297363 38.87564941 -1.32836914 39.6809082 C-1.27363518 44.13470269 -0.79279485 47.8469069 1 52 C4.42357596 53.90198664 8.2953927 52.64118203 12 52 C10.56036361 55.35915158 8.87583411 57.71624938 6 60 C2.93206783 60.09896555 1.80100167 58.83497699 -0.5625 56.875 C-6.89046893 49.41124177 -6.48847648 42.48088434 -6 33 C-5.77308038 30.61734398 -5.44805839 28.35230654 -5 26 C-8.31582225 27.65791113 -8.74103751 31.34645053 -9.875 34.6875 C-10.14038574 35.45263916 -10.40577148 36.21777832 -10.67919922 37.00610352 C-12.31289753 41.78088158 -13.77556408 46.57524677 -15.125 51.4375 C-19.49834198 67.10563015 -19.49834198 67.10563015 -23.125 69.265625 C-23.74375 69.50796875 -24.3625 69.7503125 -25 70 C-28.01048374 66.94160405 -28.40802545 64.33701243 -28.45898438 60.10742188 C-28.45189453 59.39134766 -28.44480469 58.67527344 -28.4375 57.9375 C-28.45748047 57.21755859 -28.47746094 56.49761719 -28.49804688 55.75585938 C-28.49609375 53.65234375 -28.49609375 53.65234375 -28 50 C-26.68 49.01 -25.36 48.02 -24 47 C-24 52.28 -24 57.56 -24 63 C-21.39120905 60.39120905 -21.058063 58.21362567 -20.08203125 54.65625 C-19.71489822 53.34212031 -19.34745433 52.02807745 -18.97973633 50.71411133 C-18.78940826 50.02556061 -18.5990802 49.33700989 -18.40298462 48.62759399 C-13.70729738 31.70841331 -8.30911791 15.52252796 0 0 Z " fill="#0D0D0D" transform="translate(234,70)"/>
<path d="M0 0 C2 2 2 2 2.1953125 5.6953125 C2.182009 7.17200108 2.15814835 8.64862358 2.125 10.125 C2.11597656 10.87910156 2.10695312 11.63320312 2.09765625 12.41015625 C2.0740687 14.27357254 2.03819719 16.13682593 2 18 C1.01 17.67 0.02 17.34 -1 17 C-1.33 13.37 -1.66 9.74 -2 6 C-3.32 5.67 -4.64 5.34 -6 5 C-21.49578708 21.8239974 -25.04920427 50.11465349 -27.60546875 72.09375 C-28 75 -28 75 -29 78 C-30.485 78.495 -30.485 78.495 -32 79 C-31.48503502 70.86769461 -30.41601745 63.03571983 -28.75 55.0625 C-28.52675049 53.98564941 -28.30350098 52.90879883 -28.07348633 51.79931641 C-27.61214682 49.59494057 -27.14643881 47.39147428 -26.67626953 45.18896484 C-26.0443326 42.20905142 -25.44103227 39.22451276 -24.83984375 36.23828125 C-22.25101414 23.88985189 -18.81396011 11.08380701 -9.375 2.0625 C-5.79648275 -0.12437165 -4.10287063 -0.76332477 0 0 Z " fill="#101010" transform="translate(159,60)"/>
<path d="M0 0 C0.66 0 1.32 0 2 0 C-0.1574983 20.0559281 -9.77129098 40.39279579 -21 57 C-21.33 57 -21.66 57 -22 57 C-21.69766881 49.10821113 -20.16486514 42.77172686 -17 35.5625 C-16.60280762 34.62744629 -16.20561523 33.69239258 -15.79638672 32.72900391 C-14.54907511 29.81108934 -13.27731425 26.90489125 -12 24 C-11.58524414 23.04561035 -11.17048828 22.0912207 -10.74316406 21.10791016 C-9.54683605 18.35919287 -8.3395976 15.61568888 -7.125 12.875 C-6.57199219 11.6231189 -6.57199219 11.6231189 -6.0078125 10.34594727 C-2.55852256 2.70472385 -2.55852256 2.70472385 0 0 Z " fill="#ECECEC" transform="translate(110,20)"/>
<path d="M0 0 C0.66 0 1.32 0 2 0 C1.63223832 6.30267439 0.83374078 11.33251843 -2 17 C-0.68 17.66 0.64 18.32 2 19 C2 20.98 2 22.96 2 25 C-1.45826342 25.05789006 -4.91640293 25.09355821 -8.375 25.125 C-9.35984375 25.14175781 -10.3446875 25.15851563 -11.359375 25.17578125 C-12.30039063 25.18222656 -13.24140625 25.18867187 -14.2109375 25.1953125 C-15.51490479 25.21102295 -15.51490479 25.21102295 -16.84521484 25.22705078 C-19 25 -19 25 -21 23 C-21.1875 20.4375 -21.1875 20.4375 -21 18 C-19.48927196 16.48927196 -17.83320474 16.55654455 -15.75 16.1875 C-11.48015686 15.22965209 -9.01085743 14.33635553 -6 11 C-3.83599934 7.4123147 -1.87850084 3.74409103 0 0 Z " fill="#050505" transform="translate(177,96)"/>
<path d="M0 0 C2.14187602 3.21281403 2.23448772 3.47199484 1.71875 7.00390625 C1.60917969 7.80070801 1.49960937 8.59750977 1.38671875 9.41845703 C1.19529297 10.6963208 1.19529297 10.6963208 1 12 C0.75965 13.77984455 0.52008783 15.55979565 0.28125 17.33984375 C-0.10787635 20.14037433 -0.50040861 22.94040276 -0.89453125 25.74023438 C-2.46665392 37.07063363 -3.23515971 48.26178219 -3.60546875 59.69335938 C-3.64285156 60.72138672 -3.68023438 61.74941406 -3.71875 62.80859375 C-3.74904297 63.73470459 -3.77933594 64.66081543 -3.81054688 65.61499023 C-4 68 -4 68 -5 71 C-5.66 71 -6.32 71 -7 71 C-7 77.27 -7 83.54 -7 90 C-7.33 90 -7.66 90 -8 90 C-8.48109284 59.23966377 -7.04232431 30.10854854 0 0 Z " fill="#D9D9D9" transform="translate(20,12)"/>
<path d="M0 0 C2.19921875 -0.28515625 2.19921875 -0.28515625 5 0 C7.39453125 1.94140625 7.39453125 1.94140625 9.8125 4.5625 C12.80159492 7.71077749 15.75088328 10.75424902 19.0625 13.5625 C22.01483166 16.08712969 24.77170593 18.73439592 27.5 21.5 C30.14730434 24.18326093 32.81096943 26.75256901 35.6875 29.1875 C40.32490479 33.15578025 44.55038097 37.52141258 48.83740234 41.85913086 C52.62957439 45.6796027 56.49358765 49.33158211 60.64453125 52.765625 C62 54 62 54 63 56 C62.01 56.33 61.02 56.66 60 57 C59.28972656 56.27941406 58.57945313 55.55882812 57.84765625 54.81640625 C55.12694314 52.09569314 52.29475977 49.51486493 49.4375 46.9375 C44.54854896 42.50049447 39.86060262 37.90038014 35.22265625 33.203125 C31.95830926 29.91300684 28.58682801 26.83994315 25.05859375 23.83984375 C22.43501564 21.49505193 19.97006955 19.00372173 17.5 16.5 C13.64887038 12.60602053 9.73029042 8.88708686 5.55859375 5.33984375 C4.32496821 4.27935864 3.15031749 3.15031749 2 2 C1.67 3.98 1.34 5.96 1 8 C0.67 8 0.34 8 0 8 C0 5.36 0 2.72 0 0 Z " fill="#D9D9D9" transform="translate(15,90)"/>
<path d="M0 0 C0.33 0.66 0.66 1.32 1 2 C1.99 2.33 2.98 2.66 4 3 C3.70867187 4.09828125 3.41734375 5.1965625 3.1171875 6.328125 C-0.41191686 20.15276034 -2.78219749 34.08175538 -4.94384766 48.17285156 C-5.06586044 48.94661133 -5.18787323 49.72037109 -5.31358337 50.51757812 C-5.54549659 51.98872176 -5.77004854 53.4610494 -5.98634338 54.93457031 C-6.25696816 56.63512374 -6.61974637 58.32055756 -7 60 C-7.99 60.495 -7.99 60.495 -9 61 C-8.27618818 39.72110955 -5.73925346 20.53821275 0 0 Z " fill="#E3E3E3" transform="translate(134,81)"/>
<path d="M0 0 C0.99 0.33 1.98 0.66 3 1 C1.73055048 11.09148259 -0.73335444 23.14910955 -6 32 C-8.125 33.265625 -8.125 33.265625 -10 34 C-13.01048374 30.94160405 -13.40802545 28.33701243 -13.45898438 24.10742188 C-13.45189453 23.39134766 -13.44480469 22.67527344 -13.4375 21.9375 C-13.45748047 21.21755859 -13.47746094 20.49761719 -13.49804688 19.75585938 C-13.49609375 17.65234375 -13.49609375 17.65234375 -13 14 C-11.68 13.01 -10.36 12.02 -9 11 C-9 16.28 -9 21.56 -9 27 C-6.52328855 24.52328855 -6.19228421 22.7050421 -5.2734375 19.3359375 C-4.9640625 18.21445313 -4.6546875 17.09296875 -4.3359375 15.9375 C-4.01882812 14.761875 -3.70171875 13.58625 -3.375 12.375 C-3.05015625 11.19164063 -2.7253125 10.00828125 -2.390625 8.7890625 C-1.58775715 5.86095621 -0.79116279 2.93128658 0 0 Z " fill="#161616" transform="translate(219,106)"/>
<path d="M0 0 C0.33 0 0.66 0 1 0 C1.04898438 1.08539063 1.09796875 2.17078125 1.1484375 3.2890625 C1.22351986 4.73439784 1.29906528 6.17970919 1.375 7.625 C1.4059375 8.33785156 1.436875 9.05070312 1.46875 9.78515625 C1.70920205 14.15336844 2.28182875 17.91540974 4 22 C7.42357596 23.90198664 11.2953927 22.64118203 15 22 C13.56036361 25.35915158 11.87583411 27.71624938 9 30 C5.93206783 30.09896555 4.80100167 28.83497699 2.4375 26.875 C-3.92465524 19.37091946 -3.35669731 12.5251394 -3 3 C-2.34 3.66 -1.68 4.32 -1 5 C-0.67 3.35 -0.34 1.7 0 0 Z " fill="#181818" transform="translate(231,100)"/>
<path d="M0 0 C0.33 0 0.66 0 1 0 C1.01417969 1.04414062 1.02835938 2.08828125 1.04296875 3.1640625 C1.37618253 15.17496741 3.57448694 26.3047145 6.55688477 37.92553711 C7 40 7 40 7 43 C6.34 43 5.68 43 5 43 C4.67 43.66 4.34 44.32 4 45 C-2.2006689 18.18060201 -2.2006689 18.18060201 -2 9 C-1.67 9 -1.34 9 -1 9 C-0.67 6.03 -0.34 3.06 0 0 Z " fill="#E1E1E1" transform="translate(16,110)"/>
<path d="M0 0 C0.33 0.99 0.66 1.98 1 3 C1.66 3.33 2.32 3.66 3 4 C2.35845193 8.27148858 1.7110314 12.54206656 1.0625 16.8125 C0.88009766 18.02744141 0.69769531 19.24238281 0.50976562 20.49414062 C0.33251953 21.65751953 0.15527344 22.82089844 -0.02734375 24.01953125 C-0.18968506 25.09307861 -0.35202637 26.16662598 -0.51928711 27.27270508 C-1 30 -1 30 -2 33 C-3.485 33.495 -3.485 33.495 -5 34 C-4.51449551 22.49354365 -2.16717283 11.28315416 0 0 Z " fill="#252525" transform="translate(132,105)"/>
<path d="M0 0 C3.0625 0.1875 3.0625 0.1875 5.0625 2.1875 C5.20757695 4.93235593 5.24902423 7.57230543 5.1875 10.3125 C5.17847656 11.06660156 5.16945312 11.82070312 5.16015625 12.59765625 C5.1365687 14.46107254 5.10069719 16.32432593 5.0625 18.1875 C4.0725 17.8575 3.0825 17.5275 2.0625 17.1875 C1.7325 13.5575 1.4025 9.9275 1.0625 6.1875 C-2.79688975 4.84236576 -2.79688975 4.84236576 -5.9375 6.1875 C-3.64723154 0.23280201 -3.64723154 0.23280201 0 0 Z " fill="#171717" transform="translate(155.9375,59.8125)"/>
<path d="M0 0 C0.33 0 0.66 0 1 0 C2.08041159 11.57583841 2.08041159 11.57583841 1.875 16.375 C2.01226983 20.35582521 2.96893777 22.61489629 5 26 C3.35 26 1.7 26 0 26 C-0.28875 25.030625 -0.5775 24.06125 -0.875 23.0625 C-1.64214682 19.89335797 -1.64214682 19.89335797 -4 19 C-3.52047576 16.28269597 -2.92618019 13.79238178 -2 11.1875 C-0.8189946 7.42304529 -0.40559252 3.92072774 0 0 Z " fill="#DCDCDC" transform="translate(179,94)"/>
<path d="M0 0 C3.006818 1.33999498 4.99762609 2.79845291 7.25 5.1875 C10.46682472 8.51572991 13.86185108 11.53596317 17.3984375 14.51953125 C19 16 19 16 20 18 C19.01 18.33 18.02 18.66 17 19 C16.30519531 18.29101562 15.61039063 17.58203125 14.89453125 16.8515625 C12.94728868 14.90225936 10.95053896 13.03620644 8.88671875 11.2109375 C8.0987793 10.51097656 8.0987793 10.51097656 7.29492188 9.796875 C6.20845981 8.83582472 5.11716257 7.88021723 4.02148438 6.9296875 C2.6245008 5.6802115 1.30535789 4.34491419 0 3 C0 2.01 0 1.02 0 0 Z " fill="#E1E1E1" transform="translate(58,128)"/>
<path d="M0 0 C0.33 0 0.66 0 1 0 C1 2.64 1 5.28 1 8 C1.66 8 2.32 8 3 8 C2.43004509 13.50956416 1.77579046 19.00710182 1.0625 24.5 C0.90910156 25.7065625 0.75570312 26.913125 0.59765625 28.15625 C0.40042969 29.0946875 0.20320313 30.033125 0 31 C-0.66 31.33 -1.32 31.66 -2 32 C-1.85888132 28.54145786 -1.71121691 25.08322309 -1.5625 21.625 C-1.52318359 20.65949219 -1.48386719 19.69398438 -1.44335938 18.69921875 C-1.17019178 12.43737688 -0.69676872 6.22902691 0 0 Z " fill="#D5D5D5" transform="translate(127,110)"/>
<path d="M0 0 C2.7651319 4.14769786 1.6911176 7.30166841 1 12 C0.73572729 13.99694794 0.47154609 15.99390917 0.20996094 17.99121094 C-0.18519676 20.99525925 -0.59255902 23.99759514 -1 27 C-2.5078125 25.8046875 -2.5078125 25.8046875 -4 24 C-4.63727643 16.0478985 -1.93084848 7.63838803 0 0 Z " fill="#D6D5D6" transform="translate(20,12)"/>
<path d="M0 0 C0.33 1.32 0.66 2.64 1 4 C1.33 4.66 1.66 5.32 2 6 C1.00390625 8.3828125 1.00390625 8.3828125 -0.4375 11.125 C-0.91058594 12.03507812 -1.38367188 12.94515625 -1.87109375 13.8828125 C-2.24363281 14.58148438 -2.61617187 15.28015625 -3 16 C-4.65 16 -6.3 16 -8 16 C-5.36 10.72 -2.72 5.44 0 0 Z " fill="#101010" transform="translate(197,65)"/>
<path d="M0 0 C0 3.63464315 -0.62548537 4.02840882 -3.0625 6.57421875 C-3.69414063 7.24130859 -4.32578125 7.90839844 -4.9765625 8.59570312 C-5.64429688 9.28599609 -6.31203125 9.97628906 -7 10.6875 C-8.00160156 11.7403418 -8.00160156 11.7403418 -9.0234375 12.81445312 C-10.67577321 14.54940562 -12.3347315 16.27747207 -14 18 C-14.33 17.34 -14.66 16.68 -15 16 C-15.66 15.67 -16.32 15.34 -17 15 C-16.29037109 14.38125 -16.29037109 14.38125 -15.56640625 13.75 C-10.35146799 9.19582389 -5.16879612 4.60645025 0 0 Z " fill="#EDEDED" transform="translate(37,65)"/>
<path d="M0 0 C1.8133922 3.20010388 2.52213974 6.13283843 3.125 9.75 C3.29257812 10.73484375 3.46015625 11.7196875 3.6328125 12.734375 C3.81457031 13.85585937 3.81457031 13.85585937 4 15 C3.34 15 2.68 15 2 15 C1.67 15.66 1.34 16.32 1 17 C0.44295576 14.73288983 -0.09517831 12.46112613 -0.625 10.1875 C-0.92664063 8.92292969 -1.22828125 7.65835938 -1.5390625 6.35546875 C-2 3 -2 3 0 0 Z " fill="#DDDCDD" transform="translate(19,138)"/>
<path d="M0 0 C0.66 0 1.32 0 2 0 C2.1799928 5.21979128 1.97094808 9.07262981 0 14 C-0.66 14 -1.32 14 -2 14 C-2.05437607 12.41705218 -2.09296271 10.83355744 -2.125 9.25 C-2.14820312 8.36828125 -2.17140625 7.4865625 -2.1953125 6.578125 C-1.99139502 3.8864142 -1.36551721 2.30095026 0 0 Z " fill="#F6F6F6" transform="translate(130,104)"/>
<path d="M0 0 C2.0625 -0.4375 2.0625 -0.4375 5 0 C7.57260172 2.12080183 9.79254499 4.50627561 12 7 C11.01 8.485 11.01 8.485 10 10 C7.36 7.36 4.72 4.72 2 2 C1.67 3.98 1.34 5.96 1 8 C0.67 8 0.34 8 0 8 C0 5.36 0 2.72 0 0 Z " fill="#D1D1D1" transform="translate(15,90)"/>
<path d="M0 0 C2.02466144 3.03699216 2.44458353 4.47268455 2.875 8 C2.99617187 8.86625 3.11734375 9.7325 3.2421875 10.625 C3 13 3 13 1.0078125 14.8125 C0.34523437 15.204375 -0.31734375 15.59625 -1 16 C-1.02712153 14.083412 -1.04645097 12.1667127 -1.0625 10.25 C-1.07410156 9.18265625 -1.08570313 8.1153125 -1.09765625 7.015625 C-1.01510087 4.46631499 -0.74617558 2.42066409 0 0 Z " fill="#292929" transform="translate(176,83)"/>
<path d="M0 0 C0.66 0 1.32 0 2 0 C0.33248852 3.94139078 -2.22710649 6.7892812 -5 10 C-5.99 9.67 -6.98 9.34 -8 9 C-7.04270084 7.87411986 -6.08412105 6.7493285 -5.125 5.625 C-4.59132812 4.99851562 -4.05765625 4.37203125 -3.5078125 3.7265625 C-2.38567993 2.44163349 -1.20628025 1.20628025 0 0 Z " fill="#F0F0F0" transform="translate(57,42)"/>
<path d="M0 0 C0.66 0 1.32 0 2 0 C1.67 3.3 1.34 6.6 1 10 C0.01 9.01 -0.98 8.02 -2 7 C-2.99 7.495 -2.99 7.495 -4 8 C-2.87548273 5.0280615 -1.77706209 2.66559313 0 0 Z " fill="#DBDBDB" transform="translate(207,104)"/>
<path d="M0 0 C1.67542976 0.28604898 3.34385343 0.61781233 5 1 C5 2.32 5 3.64 5 5 C3.68 5.33 2.36 5.66 1 6 C0 4 0 4 -1 1 C-0.67 0.67 -0.34 0.34 0 0 Z " fill="#A8A8A8" transform="translate(249,121)"/>
<path d="M0 0 C3.81684226 1.55500981 6.19195732 4.03595495 9 7 C8.34 7.66 7.68 8.32 7 9 C5.82737096 7.88121617 4.66204862 6.75476949 3.5 5.625 C2.8503125 4.99851562 2.200625 4.37203125 1.53125 3.7265625 C0 2 0 2 0 0 Z " fill="#E7E7E7" transform="translate(26,98)"/>
<path d="M0 0 C0.99 0 1.98 0 3 0 C5.42857143 6.28571429 5.42857143 6.28571429 4 10 C0 3.375 0 3.375 0 0 Z " fill="#202020" transform="translate(121,52)"/>
<path d="M0 0 C0.99 0.33 1.98 0.66 3 1 C1.25 3.5 1.25 3.5 -1 6 C-2.32 6 -3.64 6 -5 6 C-3.63016497 2.83884224 -3.0109362 2.0072908 0 0 Z " fill="#171717" transform="translate(128,42)"/>
<path d="M0 0 C0.66 0 1.32 0 2 0 C1.67 2.64 1.34 5.28 1 8 C-0.32 8 -1.64 8 -3 8 C-3.33 7.34 -3.66 6.68 -4 6 C-2.7260411 3.96166576 -1.38938077 1.96147874 0 0 Z " fill="#D7D7D7" transform="translate(110,20)"/>
<path d="M0 0 C-0.625 2.4375 -0.625 2.4375 -2 5 C-5.125 5.8125 -5.125 5.8125 -8 6 C-3.375 0 -3.375 0 0 0 Z " fill="#191919" transform="translate(118,52)"/>
<path d="M0 0 C0.66 0.33 1.32 0.66 2 1 C1.34 3.31 0.68 5.62 0 8 C-0.99 8 -1.98 8 -3 8 C-2.74438677 5.6568787 -2.40729228 3.32156597 -2 1 C-1.34 0.67 -0.68 0.34 0 0 Z " fill="#232323" transform="translate(216,123)"/>
<path d="M0 0 C1.03115279 3.26913624 0.9638984 5.86041348 0.5625 9.25 C0.46066406 10.14203125 0.35882812 11.0340625 0.25390625 11.953125 C0.12822266 12.96632813 0.12822266 12.96632813 0 14 C-0.33 14 -0.66 14 -1 14 C-1.144375 13.2575 -1.28875 12.515 -1.4375 11.75 C-1.90707741 9.0892578 -1.90707741 9.0892578 -2.75 7 C-3.12555855 3.99553163 -1.67246229 2.4083457 0 0 Z " fill="#C8C8C8" transform="translate(17,42)"/>
<path d="M0 0 C0.66 0 1.32 0 2 0 C1.67 2.97 1.34 5.94 1 9 C0.34 8.34 -0.32 7.68 -1 7 C-1.99 7.495 -1.99 7.495 -3 8 C-1.125 2.25 -1.125 2.25 0 0 Z " fill="#CBCBCB" transform="translate(199,69)"/>
<path d="M0 0 C2.23551759 3.35327639 2.17283528 3.90743657 1.625 7.6875 C1.51414062 8.49574219 1.40328125 9.30398437 1.2890625 10.13671875 C1.19367187 10.75160156 1.09828125 11.36648437 1 12 C-1.58464442 7.61991557 -0.81479148 4.88874887 0 0 Z " fill="#C4C4C4" transform="translate(20,12)"/>
<path d="M0 0 C0.99 0.33 1.98 0.66 3 1 C2.01 1.495 2.01 1.495 1 2 C0.71125 2.598125 0.4225 3.19625 0.125 3.8125 C-1.19965085 6.38820998 -2.89415861 8.03454804 -5 10 C-3.66511872 6.40608886 -2.03977277 3.24509304 0 0 Z " fill="#DDDDDD" transform="translate(169,80)"/>
<path d="M0 0 C1.625 1.6875 1.625 1.6875 3 4 C2.1875 6.75 2.1875 6.75 1 9 C0.34 9 -0.32 9 -1 9 C-0.67 6.03 -0.34 3.06 0 0 Z " fill="#C7C7C7" transform="translate(160,78)"/>
<path d="M0 0 C1.65 0 3.3 0 5 0 C5 0.99 5 1.98 5 3 C4.01 2.67 3.02 2.34 2 2 C1.67 3.98 1.34 5.96 1 8 C0.67 8 0.34 8 0 8 C0 5.36 0 2.72 0 0 Z " fill="#C1C1C1" transform="translate(15,90)"/>
<path d="M0 0 C2 3.75 2 3.75 2 6 C1.34 6 0.68 6 0 6 C-0.33 6.99 -0.66 7.98 -1 9 C-1.625 6.1875 -1.625 6.1875 -2 3 C-1.34 2.01 -0.68 1.02 0 0 Z " fill="#C1C1C1" transform="translate(19,138)"/>
<path d="M0 0 C0.66 0 1.32 0 2 0 C2 2.31 2 4.62 2 7 C1.34 6.34 0.68 5.68 0 5 C-0.99 5.495 -0.99 5.495 -2 6 C-1.34 4.02 -0.68 2.04 0 0 Z " fill="#BABABA" transform="translate(227,96)"/>
</svg>
